<?xml version="1.0" encoding="UTF-8" standalone="no"?>
<!-- Created with Inkscape (http://www.inkscape.org/) -->

<svg
   version="1.1"
   id="svg2"
   width="666.66669"
   height="666.66669"
   viewBox="0 0 666.66669 666.66669"
   sodipodi:docname="9778740.eps"
   xmlns:inkscape="http://www.inkscape.org/namespaces/inkscape"
   xmlns:sodipodi="http://sodipodi.sourceforge.net/DTD/sodipodi-0.dtd"
   xmlns="http://www.w3.org/2000/svg"
   xmlns:svg="http://www.w3.org/2000/svg">
  <defs
     id="defs6">
    <clipPath
       clipPathUnits="userSpaceOnUse"
       id="clipPath284">
      <path
         d="m 4361.25,1201.49 c -8.79,-17.9 -19.33,-34.85 -30.51,-51.33 -10.76,-15.87 -21.57,-32.24 -33.83,-46.98 -5.8,-6.96 -12.94,-13.48 -22.06,-15.37 -8.42,-1.76 -16.99,0.8 -20.91,8.88 -8.09,16.64 5.71,34.31 15.22,46.96 20.22,26.86 46.96,53.18 81.53,58.75 3.85,0.62 7.68,0.95 11.49,1.04 -0.31,-0.64 -0.63,-1.31 -0.93,-1.95 z m -198.05,12.04 c 3.03,-20.03 4.44,-40.36 4,-60.63 -0.39,-19.01 -0.97,-39.96 -6.6,-58.27 -4.34,-14.06 -19.63,-32.64 -35.63,-21.17 -10.93,7.82 -13.55,24.57 -14.33,36.98 -3.64,58.46 9.22,118.63 34.64,171.84 1.55,-3.71 2.95,-7.48 4.25,-11.26 6.36,-18.62 10.73,-38.04 13.67,-57.49 z m 230.85,-3.86 c -4.97,1.81 -10.01,3.08 -15.07,3.9 3.36,8.16 6.31,16.49 8.75,25.04 10.98,38.5 12.21,81.78 -6.69,118.11 -16,30.74 -45.08,55.9 -80.1,60.97 -37.02,5.35 -72.37,-12.54 -99.18,-36.78 -23,-20.8 -41.47,-46.55 -56.38,-73.9 -9.45,15.59 -22.25,28.58 -39.97,34.14 -38.21,11.97 -73.23,-16.35 -88.8,-49.24 -15.78,-33.3 -19.98,-72.98 -19.14,-109.44 1.66,-72.22 28.98,-144.07 75.94,-198.99 0.02,-0.031 0.06,-0.058 0.09,-0.101 3.21,-3.758 6.51,-7.418 9.93,-11 h 15.68 c -3.67,3.601 -7.23,7.301 -10.7,11.101 -34.69,37.99 -59.3,85.05 -71.3,135.1 -7.55,31.51 -10.32,64.19 -7.52,96.48 2.87,33.18 9.83,71.45 33.35,96.65 11.61,12.43 28.67,21.53 46,21.04 15.72,-0.43 29.27,-9.01 39.11,-20.85 4.29,-5.18 7.96,-10.81 11.15,-16.72 -2.03,-4.05 -3.99,-8.13 -5.88,-12.21 -17.12,-37.13 -28.12,-77.23 -32.31,-117.9 -2.05,-19.74 -3.17,-40.34 -1.13,-60.14 1.49,-14.42 6.01,-31.4 18.34,-40.41 13.95,-10.2 31.93,-5.03 42.75,7.15 13.41,15.12 14.63,38.77 16.21,57.89 3.65,44.4 -0.83,89.25 -13.1,132.06 -3.1,10.86 -7.07,22.52 -12.33,33.55 4.89,9.27 10.15,18.3 15.79,27.03 18.69,28.92 42.27,56.58 73.19,72.82 29.08,15.29 63.21,17.2 91.66,-0.71 28.22,-17.76 45.91,-48.17 50.66,-80.83 4.9,-33.7 -2.54,-67.74 -15.77,-98.82 -26.26,0.67 -52.14,-10.39 -72.67,-27.32 -15.06,-12.44 -27.84,-27.58 -39.15,-43.44 -10.31,-14.48 -19.57,-32.15 -12.48,-50.09 6.85,-17.34 27.05,-21.56 42.87,-14.06 17.98,8.53 29.04,28.5 40.16,44.08 17.84,25.01 35.3,50.97 48.25,78.95 23.41,-3.14 43.83,-17.01 52.14,-41.36 10.86,-31.86 1.96,-69.38 -8.02,-100.29 -8.85,-27.46 -21.46,-53.64 -37.4,-77.65 -2.49,-3.75 -5.07,-7.46 -7.72,-11.101 h 13.64 c 2.52,3.641 4.98,7.351 7.35,11.101 6.23,9.829 11.95,20.01 17.11,30.5 16.69,33.89 29.53,72.79 30.7,110.85 1.08,35.54 -12.08,71.9 -48.01,84.84 z"
         id="path282" />
    </clipPath>
    <linearGradient
       x1="0"
       y1="0"
       x2="1"
       y2="0"
       gradientUnits="userSpaceOnUse"
       gradientTransform="matrix(0,-446.263,-446.263,0,4219.75,1418.64)"
       spreadMethod="pad"
       id="linearGradient292">
      <stop
         style="stop-opacity:1;stop-color:#265e2b"
         offset="0"
         id="stop286" />
      <stop
         style="stop-opacity:1;stop-color:#128f46"
         offset="0.015873"
         id="stop288" />
      <stop
         style="stop-opacity:1;stop-color:#128f46"
         offset="1"
         id="stop290" />
    </linearGradient>
    <clipPath
       clipPathUnits="userSpaceOnUse"
       id="clipPath302">
      <path
         d="m 2241.82,1113.98 c 11.48,-8.73 22.9,-19.29 30.57,-31.61 5.88,-9.41 12.55,-25.89 4.37,-35.93 -11.14,-13.7 -29.78,-1.09 -37.78,9.25 -10.6,13.66 -18.55,30.07 -25.57,45.81 -3.99,8.93 -10.07,22.03 -13.92,35.56 15.33,-5.49 29.82,-13.58 42.33,-23.08 z m 129.42,-130.5 c -15.32,63.78 -42.29,125.14 -80.16,178.58 -18.15,25.62 -48.21,51.74 -81.75,37.53 -21.02,-8.9 -25.48,-27.61 -23.36,-47.27 -27.72,6.51 -68.62,6.48 -81.6,-24.71 -14.05,-33.69 17.89,-68.65 39.97,-90.15 22.93,-22.31 49.73,-40.659 78.84,-53.98 4.21,-1.921 8.48,-3.742 12.8,-5.46 5.18,-2.051 10.41,-3.93 15.7,-5.641 h 17.05 c 1.45,2.68 0.99,6.191 -2.75,7.262 -4.12,1.179 -8.22,2.461 -12.27,3.839 -26.05,8.829 -50.65,21.49 -72.89,37.75 -13.18,9.63 -25.51,20.41 -36.68,32.3 -10.59,11.27 -20.89,23.36 -27.07,37.66 -6.03,13.94 -7.43,30.84 4.57,42.14 9.41,8.88 23.48,11.47 36,11.47 10.11,-0.02 20.29,-1.49 30.26,-4.12 2.46,-11.24 6.43,-22.22 10.02,-31.29 7.37,-18.53 16.4,-36.58 27.19,-53.36 8.99,-13.99 22,-26.9 39.81,-26.43 15.41,0.41 26.34,12.64 26.57,27.74 0.24,15.3 -7.54,29.66 -17.15,41.07 -20.32,24.09 -47.58,41.74 -77.61,50.98 -2.49,15.83 -0.11,30.71 14.17,38.56 28.69,15.76 56.16,-11.32 71.39,-32.83 36.4,-51.37 62.44,-110.38 77.45,-171.64 0.91,-3.691 1.78,-7.378 2.6,-11.101 h 11.45 c -0.81,3.723 -1.66,7.41 -2.55,11.101 z"
         id="path300" />
    </clipPath>
    <linearGradient
       x1="0"
       y1="0"
       x2="1"
       y2="0"
       gradientUnits="userSpaceOnUse"
       gradientTransform="matrix(0,-231.235,-231.235,0,2237.35,1203.61)"
       spreadMethod="pad"
       id="linearGradient310">
      <stop
         style="stop-opacity:1;stop-color:#265e2b"
         offset="0"
         id="stop304" />
      <stop
         style="stop-opacity:1;stop-color:#128f46"
         offset="0.015873"
         id="stop306" />
      <stop
         style="stop-opacity:1;stop-color:#128f46"
         offset="1"
         id="stop308" />
    </linearGradient>
  </defs>
  <sodipodi:namedview
     id="namedview4"
     pagecolor="#ffffff"
     bordercolor="#000000"
     borderopacity="0.25"
     inkscape:showpageshadow="2"
     inkscape:pageopacity="0.0"
     inkscape:pagecheckerboard="0"
     inkscape:deskcolor="#d1d1d1" />
  <g
     id="g8"
     inkscape:groupmode="layer"
     inkscape:label="ink_ext_XXXXXX"
     transform="matrix(1.3333333,0,0,-1.3333333,0,666.66667)">
    <g
       id="g10"
       transform="scale(0.1)">
      <path
         d="M 5000,0 H 0 V 5000 H 5000 V 0"
         style="fill:#ffffff;fill-opacity:1;fill-rule:nonzero;stroke:none"
         id="path12" />
      <path
         d="M 4749.96,982.09 H 537.563 c -215.633,-5.988 -310.977,176.18 -344.715,339.37 -44.645,215.89 -8.035,460.51 156.015,604.19 74.489,65.24 170.973,112.99 211.703,204.36 35.938,80.68 18.196,176.32 -16.125,257.74 -34.324,81.39 -84.175,155.47 -114.867,238.39 -61.996,167.5 -37.019,366.01 64.41,511.87 101.43,145.86 276.286,234.74 450.883,229.17 149.613,-4.77 304.943,-9.65 428.223,77.41 123.29,87.07 215.93,211.45 322.24,319.52 114.66,116.58 251.71,217.56 409.6,252.12 157.9,34.56 338.9,-8.91 439.75,-138.21 81.01,-103.87 107.07,-253.6 213.92,-329 109.11,-76.99 248.94,-44.48 372.04,-41.98 114.43,2.32 253.46,-12.56 347.85,-82.66 74.14,-55.07 130.03,-131.45 188.66,-203.53 58.65,-72.08 123.69,-142.84 207.63,-180.29 86.58,-38.61 184.93,-38.07 275.07,-66.9 196.31,-62.8 334.24,-278.76 311.96,-488.43 -14.85,-139.62 -91.6,-270.13 -85.04,-410.41 6.24,-133.6 87.09,-250.74 174.15,-350.32 87.05,-99.57 185.35,-193.05 240.59,-314.2 55.24,-121.16 54.93,-338.24 -41.55,-428.21"
         style="fill:#eff4fb;fill-opacity:1;fill-rule:nonzero;stroke:none"
         id="path14" />
      <path
         d="M 4398.59,982.09 H 865.566 c -75.707,34.13 -149.531,72.26 -216.207,122.1 -98.027,73.29 -180.621,175.61 -207.019,297.04 -26.164,120.36 13.496,248.28 104.637,329.32 88.476,78.64 189.339,95.97 225.093,228.51 26.946,99.86 9.649,206.15 -10.894,307.62 -20.528,101.46 -44.321,205.08 -29.809,307.63 21.934,155.02 138.504,291.63 285.413,334.47 120.69,35.2 254.25,11.25 370.55,59.56 123.01,51.1 202.78,172.6 267.73,291.31 64.95,118.71 126.61,246.07 233.94,326.12 101.56,75.76 238.51,98.94 358.42,60.69 119.89,-38.24 219.87,-137.01 261.63,-258.47 20.2,-58.74 28.35,-123.88 65.29,-173.33 131.38,-175.99 419.92,-27.31 590.04,-40.02 91.93,-6.86 186.45,-50.48 231.56,-132.91 82.29,-150.31 47.02,-315.31 216.93,-409.18 70.22,-38.79 148.74,-58.56 222.34,-90.06 224.89,-96.24 216.77,-284.14 188.65,-502.06 -14.57,-112.8 -18.82,-237.5 46.7,-329.32 66.31,-92.89 185.53,-126.41 272.44,-199.26 84.15,-70.53 135.8,-180.21 137.37,-291.64 1.2,-86.12 -30.42,-168.75 -81.78,-238.12"
         style="fill:#c3d4ef;fill-opacity:1;fill-rule:nonzero;stroke:none"
         id="path16" />
      <path
         d="m 810.238,2493.1 c -13.297,27.51 -23.074,65.1 -0.996,90.91 8.91,10.41 22.645,17.7 36.613,15.36 12.961,-2.17 22.918,-12.39 28.012,-24.06 12.238,-28.06 -5.551,-57.02 -27.711,-73.95 -9.656,-7.38 -20.242,-12.99 -31.383,-17 -1.585,2.88 -3.109,5.79 -4.535,8.74 z m 240.542,-91.29 c -60.999,-25.12 -132.557,-16.46 -185.089,23.66 -17.777,13.59 -33.179,30.31 -45.179,49.21 9.488,3.58 18.625,8.23 27.226,14.04 25.184,17.02 47.059,47.36 40.157,79.21 -6.254,28.85 -33.43,50.74 -63.2,40.23 -33.465,-11.85 -43.91,-49.77 -37.742,-81.61 3.067,-15.81 8.914,-31.22 16.715,-45.63 -39.863,-10.33 -84.953,-1.75 -119.637,19.72 -58.597,36.28 -88.539,105.08 -95.847,171.39 -0.789,7.17 -11.879,5.6 -11.09,-1.56 7.242,-65.71 35.949,-133 90.926,-172.58 39.91,-28.73 93.992,-40.33 141.398,-26.87 7.496,-12.05 16.305,-23.26 25.887,-33.25 49.574,-51.68 124.34,-73.28 193.835,-54.99 8.89,2.34 17.59,5.25 26.08,8.76 6.66,2.74 2.24,13.02 -4.44,10.27"
         style="fill:#2d3766;fill-opacity:1;fill-rule:nonzero;stroke:none"
         id="path18" />
      <path
         d="m 4368.86,1945 c -8.36,-25.84 -27.08,-50.51 -54.04,-58.44 -25,-7.36 -58.86,1.95 -56.77,33.65 2.1,31.81 32.78,56.59 59.08,69.87 17.04,8.59 35.62,14.04 54.57,16.05 4.37,-20.16 3.49,-41.59 -2.84,-61.13 z m 59.1,68.2 c -15.59,4.04 -31.76,5.55 -47.83,4.77 -7.58,24.84 -22.73,46.86 -42.13,64.37 -59.41,53.6 -144.09,56.76 -218.66,41.09 -10.7,-2.25 -21.3,-4.87 -31.84,-7.71 -6.87,-1.86 -5.4,-12.97 1.55,-11.1 69.56,18.77 148.1,27.44 213.19,-10.15 26.56,-15.35 49.63,-37.88 62.24,-66.15 1.64,-3.67 3.06,-7.45 4.29,-11.29 -13.97,-1.63 -27.75,-4.98 -40.88,-9.98 -31.15,-11.84 -63.19,-34.41 -76.19,-66.2 -6.25,-15.3 -7.14,-32.81 1.96,-47.18 7.42,-11.72 20.24,-18.37 33.72,-20.31 30.66,-4.4 59.62,12.72 76.84,37.22 17.8,25.32 24.28,57.79 20.12,88.26 -0.37,2.72 -0.84,5.4 -1.39,8.07 8.19,0.27 16.41,-0.08 24.56,-1.14 69.44,-8.92 124.1,-69.75 129.19,-139 0.53,-7.19 11.61,-5.6 11.09,1.55 -4.94,67.19 -54.43,127.92 -119.83,144.88"
         style="fill:#2d3766;fill-opacity:1;fill-rule:nonzero;stroke:none"
         id="path20" />
      <path
         d="m 1072.78,2122.25 c 0.08,-36.95 -29.8,-66.97 -66.75,-67.06 -36.952,-0.09 -66.975,29.8 -67.061,66.76 -0.082,36.94 29.804,66.96 66.751,67.05 36.95,0.09 66.98,-29.81 67.06,-66.75"
         style="fill:#4e7ec8;fill-opacity:1;fill-rule:nonzero;stroke:none"
         id="path22" />
      <path
         d="m 701.523,2356.29 c 0.043,-18.43 -14.863,-33.41 -33.296,-33.45 -18.426,-0.04 -33.403,14.87 -33.446,33.3 -0.039,18.42 14.867,33.4 33.293,33.44 18.434,0.04 33.406,-14.86 33.449,-33.29"
         style="fill:#ed1744;fill-opacity:1;fill-rule:nonzero;stroke:none"
         id="path24" />
      <path
         d="m 742.07,2854.19 c 0.055,-23.74 -19.148,-43.03 -42.89,-43.08 -23.742,-0.06 -43.028,19.15 -43.082,42.89 -0.051,23.74 19.144,43.02 42.886,43.07 23.743,0.06 43.028,-19.14 43.086,-42.88"
         style="fill:#fbc607;fill-opacity:1;fill-rule:nonzero;stroke:none"
         id="path26" />
      <path
         d="m 4270.54,2319.07 c 0.11,-46.71 -37.67,-84.66 -84.38,-84.76 -46.71,-0.11 -84.66,37.67 -84.76,84.37 -0.11,46.71 37.67,84.66 84.38,84.77 46.71,0.11 84.65,-37.68 84.76,-84.38"
         style="fill:#4e7ec8;fill-opacity:1;fill-rule:nonzero;stroke:none"
         id="path28" />
      <path
         d="m 2339.86,3144.12 c 0.09,-41.64 -33.59,-75.47 -75.24,-75.57 -41.65,-0.1 -75.48,33.59 -75.58,75.23 -0.09,41.65 33.59,75.49 75.24,75.59 41.64,0.09 75.48,-33.6 75.58,-75.25"
         style="fill:#4e7ec8;fill-opacity:1;fill-rule:nonzero;stroke:none"
         id="path30" />
      <path
         d="m 4385.64,1614.45 c 0.1,-41.64 -33.58,-75.48 -75.23,-75.58 -41.65,-0.1 -75.48,33.59 -75.58,75.23 -0.09,41.66 33.59,75.49 75.24,75.58 41.64,0.1 75.48,-33.58 75.57,-75.23"
         style="fill:#ed1744;fill-opacity:1;fill-rule:nonzero;stroke:none"
         id="path32" />
      <path
         d="M 3940.14,2851.99 H 3303.7 l -534.19,510.82 -532.3,-510.82 h -638.34 l -229.33,-351.01 h 229.33 c 0,0 1142.46,-282.36 1170.64,-276.62 28.17,-5.74 1170.63,276.62 1170.63,276.62 h 229.34 l -229.34,351.01"
         style="fill:#2d3766;fill-opacity:1;fill-rule:nonzero;stroke:none"
         id="path34" />
      <path
         d="M 3940.14,2500.98 V 1797.81 H 1598.87 v 703.17 h 763.73 v 335.99 l 406.91,398.42 406.9,-398.42 v -335.99 h 763.73"
         style="fill:#ffffff;fill-opacity:1;fill-rule:nonzero;stroke:none"
         id="path36" />
      <path
         d="m 2532.54,2500.98 v 257.39 l 238.14,233.18 238.14,-233.18 v -257.39 h -476.28"
         style="fill:#c3d4ef;fill-opacity:1;fill-rule:nonzero;stroke:none"
         id="path38" />
      <path
         d="m 2693.08,2679.24 c -47.91,-44.78 -95.81,-89.57 -143.72,-134.35 -4.67,-4.37 1.48,-12.26 6.2,-7.85 47.91,44.78 95.81,89.56 143.72,134.35 4.67,4.36 -1.49,12.26 -6.2,7.85"
         style="fill:#4e7ec8;fill-opacity:1;fill-rule:nonzero;stroke:none"
         id="path40" />
      <path
         d="m 2843.45,2736.89 c -63.34,-49.78 -126.68,-99.56 -190.02,-149.35 -5.06,-3.97 1.13,-11.83 6.2,-7.85 63.34,49.79 126.68,99.57 190.02,149.36 5.06,3.97 -1.12,11.83 -6.2,7.84"
         style="fill:#4e7ec8;fill-opacity:1;fill-rule:nonzero;stroke:none"
         id="path42" />
      <path
         d="M 3176.41,2836.97 V 2782.2 L 2755.55,3159.16 2362.6,2784.8 v 52.17 l 406.91,398.42 406.9,-398.42"
         style="fill:#eff4fb;fill-opacity:1;fill-rule:nonzero;stroke:none"
         id="path44" />
      <path
         d="M 3940.14,1715.8 V 981.781 H 1598.87 V 1715.8 h 2341.27"
         style="fill:#ffffff;fill-opacity:1;fill-rule:nonzero;stroke:none"
         id="path46" />
      <path
         d="M 3940.14,1715.8 V 1612.28 H 1598.87 v 103.52 h 2341.27"
         style="fill:#eff4fb;fill-opacity:1;fill-rule:nonzero;stroke:none"
         id="path48" />
      <path
         d="m 1952.45,2136.71 h -260.97 v 260.96 h 260.97 v -260.96"
         style="fill:#2d3766;fill-opacity:1;fill-rule:nonzero;stroke:none"
         id="path50" />
      <path
         d="M 1907.63,2181.53 H 1736.3 v 171.33 h 171.33 v -171.33"
         style="fill:#c3d4ef;fill-opacity:1;fill-rule:nonzero;stroke:none"
         id="path52" />
      <path
         d="M 2331.46,2136.71 H 2070.5 v 260.96 h 260.96 v -260.96"
         style="fill:#2d3766;fill-opacity:1;fill-rule:nonzero;stroke:none"
         id="path54" />
      <path
         d="m 2286.65,2181.53 h -171.34 v 171.33 h 171.34 v -171.33"
         style="fill:#c3d4ef;fill-opacity:1;fill-rule:nonzero;stroke:none"
         id="path56" />
      <path
         d="m 2710.48,2136.71 h -260.96 v 260.96 h 260.96 v -260.96"
         style="fill:#2d3766;fill-opacity:1;fill-rule:nonzero;stroke:none"
         id="path58" />
      <path
         d="m 2665.66,2181.53 h -171.33 v 171.33 h 171.33 v -171.33"
         style="fill:#c3d4ef;fill-opacity:1;fill-rule:nonzero;stroke:none"
         id="path60" />
      <path
         d="m 3089.49,2136.71 h -260.95 v 260.96 h 260.95 v -260.96"
         style="fill:#2d3766;fill-opacity:1;fill-rule:nonzero;stroke:none"
         id="path62" />
      <path
         d="m 3044.68,2181.53 h -171.34 v 171.33 h 171.34 v -171.33"
         style="fill:#c3d4ef;fill-opacity:1;fill-rule:nonzero;stroke:none"
         id="path64" />
      <path
         d="m 3468.51,2136.71 h -260.96 v 260.96 h 260.96 v -260.96"
         style="fill:#2d3766;fill-opacity:1;fill-rule:nonzero;stroke:none"
         id="path66" />
      <path
         d="m 3423.7,2181.53 h -171.34 v 171.33 h 171.34 v -171.33"
         style="fill:#c3d4ef;fill-opacity:1;fill-rule:nonzero;stroke:none"
         id="path68" />
      <path
         d="m 3847.52,2136.71 h -260.95 v 260.96 h 260.95 v -260.96"
         style="fill:#2d3766;fill-opacity:1;fill-rule:nonzero;stroke:none"
         id="path70" />
      <path
         d="m 3802.71,2181.53 h -171.33 v 171.33 h 171.33 v -171.33"
         style="fill:#c3d4ef;fill-opacity:1;fill-rule:nonzero;stroke:none"
         id="path72" />
      <path
         d="m 1952.45,1236.31 h -260.97 v 260.97 h 260.97 v -260.97"
         style="fill:#2d3766;fill-opacity:1;fill-rule:nonzero;stroke:none"
         id="path74" />
      <path
         d="M 1907.63,1281.13 H 1736.3 v 171.33 h 171.33 v -171.33"
         style="fill:#c3d4ef;fill-opacity:1;fill-rule:nonzero;stroke:none"
         id="path76" />
      <path
         d="M 2331.46,1236.31 H 2070.5 v 260.97 h 260.96 v -260.97"
         style="fill:#2d3766;fill-opacity:1;fill-rule:nonzero;stroke:none"
         id="path78" />
      <path
         d="m 2286.65,1281.13 h -171.34 v 171.33 h 171.34 v -171.33"
         style="fill:#c3d4ef;fill-opacity:1;fill-rule:nonzero;stroke:none"
         id="path80" />
      <path
         d="m 3468.51,1236.31 h -260.96 v 260.97 h 260.96 v -260.97"
         style="fill:#2d3766;fill-opacity:1;fill-rule:nonzero;stroke:none"
         id="path82" />
      <path
         d="m 3423.7,1281.13 h -171.34 v 171.33 h 171.34 v -171.33"
         style="fill:#c3d4ef;fill-opacity:1;fill-rule:nonzero;stroke:none"
         id="path84" />
      <path
         d="m 3847.52,1236.31 h -260.95 v 260.97 h 260.95 v -260.97"
         style="fill:#2d3766;fill-opacity:1;fill-rule:nonzero;stroke:none"
         id="path86" />
      <path
         d="m 3802.71,1281.13 h -171.33 v 171.33 h 171.33 v -171.33"
         style="fill:#c3d4ef;fill-opacity:1;fill-rule:nonzero;stroke:none"
         id="path88" />
      <path
         d="M 3940.14,2033.29 H 1598.87 l -229.33,-351.01 h 2799.94 l -229.34,351.01"
         style="fill:#2d3766;fill-opacity:1;fill-rule:nonzero;stroke:none"
         id="path90" />
      <path
         d="M 3041.53,1461.3 V 981.781 H 2480.87 V 1461.3 c 0,24.63 19.97,44.59 44.59,44.59 h 471.47 c 24.63,0 44.6,-19.96 44.6,-44.59"
         style="fill:#4e7ec8;fill-opacity:1;fill-rule:nonzero;stroke:none"
         id="path92" />
      <path
         d="M 2764.36,1466.96 V 1004.4 c 0,-3.91 6.08,-4.74 6.08,-0.79 v 462.56 c 0,3.89 -6.08,4.72 -6.08,0.79"
         style="fill:#2d3766;fill-opacity:1;fill-rule:nonzero;stroke:none"
         id="path94" />
      <path
         d="m 2697.92,1229.56 c -1.48,0.2 -3.44,-0.97 -3.44,-2.64 v -75.96 c 0,-1.65 0.85,-3.2 2.64,-3.44 1.48,-0.19 3.44,0.98 3.44,2.65 v 75.96 c 0,1.66 -0.85,3.21 -2.64,3.43"
         style="fill:#2d3766;fill-opacity:1;fill-rule:nonzero;stroke:none"
         id="path96" />
      <path
         d="m 2825.53,1229.56 c -1.48,0.2 -3.44,-0.97 -3.44,-2.64 v -75.96 c 0,-1.65 0.85,-3.2 2.65,-3.44 1.48,-0.19 3.43,0.98 3.43,2.65 v 75.96 c 0,1.66 -0.85,3.21 -2.64,3.43"
         style="fill:#2d3766;fill-opacity:1;fill-rule:nonzero;stroke:none"
         id="path98" />
      <path
         d="m 1820.51,2269.95 c -0.93,1.19 -3.13,1.69 -4.31,0.51 -20.38,-20.38 -40.76,-40.75 -61.13,-61.13 -5.84,-5.84 -11.67,-11.67 -17.51,-17.51 -1.17,-1.16 -1.62,-2.9 -0.5,-4.31 0.93,-1.18 3.13,-1.68 4.3,-0.5 l 78.64,78.64 c 1.17,1.17 1.62,2.9 0.51,4.3"
         style="fill:#4e7ec8;fill-opacity:1;fill-rule:nonzero;stroke:none"
         id="path100" />
      <path
         d="m 1892.86,2298.26 c -0.94,1.19 -3.13,1.69 -4.31,0.51 -22.88,-22.87 -45.75,-45.75 -68.62,-68.62 l -19.46,-19.45 c -1.17,-1.18 -1.62,-2.9 -0.5,-4.31 0.93,-1.18 3.13,-1.69 4.31,-0.51 22.87,22.87 45.74,45.75 68.62,68.63 6.48,6.48 12.97,12.96 19.45,19.45 1.17,1.17 1.62,2.9 0.51,4.3"
         style="fill:#4e7ec8;fill-opacity:1;fill-rule:nonzero;stroke:none"
         id="path102" />
      <path
         d="m 2234.43,2309.56 c -0.93,1.19 -3.13,1.68 -4.3,0.51 -27.73,-27.73 -55.46,-55.46 -83.19,-83.18 -7.92,-7.93 -15.84,-15.85 -23.76,-23.77 -1.17,-1.17 -1.62,-2.9 -0.51,-4.31 0.94,-1.18 3.13,-1.69 4.31,-0.51 l 106.95,106.96 c 1.17,1.16 1.62,2.9 0.5,4.3"
         style="fill:#4e7ec8;fill-opacity:1;fill-rule:nonzero;stroke:none"
         id="path104" />
      <path
         d="m 2220,2263.67 c -0.94,1.18 -3.13,1.67 -4.31,0.5 l -53.48,-53.47 c -1.17,-1.18 -1.61,-2.9 -0.5,-4.31 0.93,-1.18 3.13,-1.69 4.31,-0.51 17.82,17.82 35.65,35.66 53.47,53.48 1.17,1.17 1.62,2.9 0.51,4.31"
         style="fill:#4e7ec8;fill-opacity:1;fill-rule:nonzero;stroke:none"
         id="path106" />
      <path
         d="m 2603.75,2298.26 c -0.93,1.19 -3.12,1.69 -4.3,0.51 -20.38,-20.38 -40.76,-40.75 -61.13,-61.13 -5.84,-5.84 -11.68,-11.67 -17.51,-17.51 -1.17,-1.16 -1.62,-2.9 -0.51,-4.31 0.94,-1.18 3.13,-1.68 4.31,-0.5 20.38,20.38 40.76,40.76 61.14,61.14 5.83,5.83 11.67,11.67 17.5,17.5 1.17,1.17 1.62,2.9 0.5,4.3"
         style="fill:#4e7ec8;fill-opacity:1;fill-rule:nonzero;stroke:none"
         id="path108" />
      <path
         d="m 2660.38,2295.12 c -0.94,1.18 -3.13,1.69 -4.31,0.51 l -59.77,-59.77 c -1.17,-1.17 -1.62,-2.9 -0.5,-4.3 0.93,-1.19 3.13,-1.69 4.31,-0.51 l 59.76,59.76 c 1.17,1.18 1.62,2.9 0.51,4.31"
         style="fill:#4e7ec8;fill-opacity:1;fill-rule:nonzero;stroke:none"
         id="path110" />
      <path
         d="m 2983.13,2315.89 c -0.94,1.18 -3.13,1.69 -4.32,0.51 -24.53,-24.53 -49.06,-49.07 -73.6,-73.6 -6.92,-6.93 -13.84,-13.84 -20.76,-20.77 -1.17,-1.17 -1.62,-2.9 -0.51,-4.3 0.94,-1.18 3.14,-1.69 4.31,-0.51 24.54,24.53 49.07,49.07 73.61,73.6 6.92,6.93 13.84,13.85 20.76,20.77 1.17,1.17 1.62,2.9 0.51,4.3"
         style="fill:#4e7ec8;fill-opacity:1;fill-rule:nonzero;stroke:none"
         id="path112" />
      <path
         d="m 3012.68,2285.69 c -0.94,1.18 -3.13,1.68 -4.31,0.5 -23.07,-23.06 -46.13,-46.14 -69.2,-69.2 -1.17,-1.18 -1.62,-2.9 -0.51,-4.31 0.93,-1.18 3.13,-1.68 4.31,-0.51 23.07,23.07 46.14,46.13 69.2,69.21 1.17,1.16 1.62,2.9 0.51,4.31"
         style="fill:#4e7ec8;fill-opacity:1;fill-rule:nonzero;stroke:none"
         id="path114" />
      <path
         d="m 3399.58,2279.4 c -0.93,1.18 -3.12,1.68 -4.3,0.5 -19.6,-19.59 -39.19,-39.18 -58.78,-58.77 -5.57,-5.58 -11.15,-11.16 -16.72,-16.72 -1.17,-1.17 -1.62,-2.9 -0.5,-4.31 0.93,-1.18 3.13,-1.69 4.3,-0.51 l 58.78,58.78 c 5.57,5.57 11.15,11.14 16.72,16.71 1.17,1.17 1.62,2.9 0.5,4.32"
         style="fill:#4e7ec8;fill-opacity:1;fill-rule:nonzero;stroke:none"
         id="path116" />
      <path
         d="m 3751.89,2298.26 c -0.94,1.19 -3.13,1.69 -4.31,0.51 -24.54,-24.53 -49.07,-49.07 -73.61,-73.6 -6.92,-6.92 -13.84,-13.84 -20.76,-20.76 -1.17,-1.17 -1.62,-2.9 -0.5,-4.31 0.93,-1.18 3.12,-1.69 4.31,-0.51 24.53,24.53 49.06,49.08 73.6,73.61 6.92,6.92 13.84,13.83 20.76,20.76 1.17,1.17 1.62,2.9 0.51,4.3"
         style="fill:#4e7ec8;fill-opacity:1;fill-rule:nonzero;stroke:none"
         id="path118" />
      <path
         d="m 1870.84,1448.97 c -0.94,1.18 -3.13,1.68 -4.31,0.5 l -103.81,-103.8 c -1.16,-1.18 -1.61,-2.9 -0.5,-4.31 0.93,-1.19 3.13,-1.69 4.31,-0.51 l 103.8,103.8 c 1.17,1.17 1.62,2.9 0.51,4.32"
         style="fill:#4e7ec8;fill-opacity:1;fill-rule:nonzero;stroke:none"
         id="path120" />
      <path
         d="m 1842.53,1379.76 c -0.94,1.18 -3.13,1.69 -4.31,0.51 l -66,-66 c -6.31,-6.31 -12.62,-12.63 -18.93,-18.94 -1.17,-1.17 -1.62,-2.9 -0.51,-4.3 0.94,-1.18 3.13,-1.69 4.31,-0.51 l 84.93,84.93 c 1.17,1.17 1.62,2.9 0.51,4.31"
         style="fill:#4e7ec8;fill-opacity:1;fill-rule:nonzero;stroke:none"
         id="path122" />
      <path
         d="m 2229.43,1404.92 c -0.93,1.19 -3.13,1.68 -4.31,0.51 l -58.77,-58.78 c -5.57,-5.57 -11.14,-11.14 -16.72,-16.72 -1.17,-1.16 -1.62,-2.9 -0.5,-4.3 0.93,-1.18 3.13,-1.68 4.3,-0.51 19.6,19.6 39.19,39.19 58.78,58.78 5.57,5.58 11.14,11.14 16.72,16.72 1.17,1.17 1.62,2.9 0.5,4.3"
         style="fill:#4e7ec8;fill-opacity:1;fill-rule:nonzero;stroke:none"
         id="path124" />
      <path
         d="m 2289.2,1430.09 c -0.94,1.18 -3.13,1.68 -4.31,0.51 l -61.14,-61.13 c -5.83,-5.84 -11.67,-11.67 -17.5,-17.51 -1.17,-1.18 -1.62,-2.9 -0.5,-4.31 0.93,-1.18 3.13,-1.69 4.3,-0.51 20.38,20.38 40.76,40.75 61.14,61.13 5.83,5.84 11.67,11.67 17.5,17.51 1.17,1.17 1.62,2.9 0.51,4.31"
         style="fill:#4e7ec8;fill-opacity:1;fill-rule:nonzero;stroke:none"
         id="path126" />
      <path
         d="m 3352.4,1386.05 c -0.94,1.19 -3.13,1.69 -4.31,0.51 l -68.62,-68.63 c -6.49,-6.48 -12.97,-12.97 -19.46,-19.45 -1.16,-1.17 -1.61,-2.9 -0.5,-4.31 0.93,-1.18 3.13,-1.68 4.31,-0.51 l 68.62,68.63 c 6.49,6.48 12.97,12.97 19.45,19.45 1.18,1.17 1.62,2.9 0.51,4.31"
         style="fill:#4e7ec8;fill-opacity:1;fill-rule:nonzero;stroke:none"
         id="path128" />
      <path
         d="m 3402.73,1376.61 c -0.93,1.19 -3.13,1.69 -4.31,0.51 l -53.47,-53.47 c -1.17,-1.18 -1.62,-2.91 -0.51,-4.31 0.94,-1.18 3.13,-1.69 4.31,-0.51 l 53.47,53.48 c 1.17,1.17 1.62,2.9 0.51,4.3"
         style="fill:#4e7ec8;fill-opacity:1;fill-rule:nonzero;stroke:none"
         id="path130" />
      <path
         d="m 3755.03,1423.8 c -0.93,1.18 -3.13,1.68 -4.31,0.5 -29.44,-29.43 -58.87,-58.88 -88.31,-88.31 l -24.92,-24.92 c -1.18,-1.17 -1.62,-2.9 -0.51,-4.32 0.94,-1.18 3.13,-1.68 4.31,-0.5 29.44,29.44 58.88,58.88 88.31,88.31 8.31,8.31 16.62,16.62 24.93,24.93 1.17,1.17 1.62,2.91 0.5,4.31"
         style="fill:#4e7ec8;fill-opacity:1;fill-rule:nonzero;stroke:none"
         id="path132" />
      <path
         d="m 3745.6,1373.47 c -0.94,1.18 -3.13,1.68 -4.31,0.51 l -50.33,-50.33 c -1.17,-1.18 -1.62,-2.91 -0.51,-4.31 0.94,-1.18 3.13,-1.69 4.31,-0.51 16.78,16.78 33.56,33.56 50.33,50.33 1.17,1.17 1.62,2.9 0.51,4.31"
         style="fill:#4e7ec8;fill-opacity:1;fill-rule:nonzero;stroke:none"
         id="path134" />
      <path
         d="m 1115.88,1975.75 c 24.88,0 50.39,-26.62 45.37,-103.24 -61.55,0 -162.031,0 -162.031,0 0,0 6.291,103.24 116.661,103.24"
         style="fill:#2d3766;fill-opacity:1;fill-rule:nonzero;stroke:none"
         id="path136" />
      <path
         d="m 1636.09,982.09 h -610.45 c -37.105,20.74 -84.835,30.68 -122.324,51.51 -60.921,33.83 -74.453,140.44 -91.382,226.74 -16.918,86.29 -169.215,104.91 -218.282,125.21 -49.066,20.31 -57.535,60.93 -57.535,94.77 v 414.58 c 0,74.45 72.766,79.52 72.766,79.52 l 506.987,1.32 c -0.06,0 -0.12,0 -0.19,0 -3.69,-0.08 -59.76,-2.45 -69.12,-74.15 -1.1,-8.48 -1.96,-18.28 -2.6,-29.08 -4.98,-83.61 2.6,-226.48 2.6,-270.75 0,-49.97 40.31,-87.04 85.44,-103.16 45.14,-16.13 193.44,-61.26 214.4,-146.7 20.95,-85.43 16.12,-132.19 69.31,-172.48 53.2,-40.3 169.26,-43.52 201.5,-127.34 9.89,-25.74 14.48,-48.75 18.88,-69.99"
         style="fill:#ffffff;fill-opacity:1;fill-rule:nonzero;stroke:none"
         id="path138" />
      <path
         d="M 998.219,1741.62 H 593.73 c -8.578,0 -7.667,-13.27 0.856,-13.27 h 404.492 c 8.572,0 7.662,13.27 -0.859,13.27"
         style="fill:#2d3766;fill-opacity:1;fill-rule:nonzero;stroke:none"
         id="path140" />
      <path
         d="M 1000.83,1647.68 H 596.34 c -8.574,0 -7.664,-13.27 0.851,-13.27 h 404.489 c 8.58,0 7.67,13.27 -0.85,13.27"
         style="fill:#2d3766;fill-opacity:1;fill-rule:nonzero;stroke:none"
         id="path142" />
      <path
         d="M 990.391,1545.9 H 585.898 c -8.574,0 -7.66,-13.26 0.86,-13.26 h 404.488 c 8.578,0 7.66,13.26 -0.855,13.26"
         style="fill:#2d3766;fill-opacity:1;fill-rule:nonzero;stroke:none"
         id="path144" />
      <path
         d="M 1079.12,1449.35 H 674.625 c -8.574,0 -7.656,-13.27 0.859,-13.27 h 404.496 c 8.57,0 7.66,13.27 -0.86,13.27"
         style="fill:#2d3766;fill-opacity:1;fill-rule:nonzero;stroke:none"
         id="path146" />
      <path
         d="M 1253.96,1368.45 H 849.473 c -8.578,0 -7.66,-13.27 0.855,-13.27 h 404.492 c 8.58,0 7.66,13.27 -0.86,13.27"
         style="fill:#2d3766;fill-opacity:1;fill-rule:nonzero;stroke:none"
         id="path148" />
      <path
         d="m 681.754,1830.13 h -21.887 v 16.97 h 21.887 c 8.019,0 12.023,-2.93 12.023,-8.48 0,-5.56 -4.004,-8.49 -12.023,-8.49 z m -21.887,57.05 h 16.949 c 8.172,0 11.872,-2.78 11.872,-8.01 0,-5.24 -3.7,-8.02 -11.872,-8.02 h -16.949 z m 50.571,-26.06 c 9.859,4.94 14.953,13.27 14.953,23.28 0,16.36 -13.883,28.22 -43.637,28.22 h -57.656 v -107.93 h 60.742 c 29.754,0 45.629,10.95 45.629,29.76 0,12.8 -7.395,22.05 -20.031,26.67"
         style="fill:#2d3766;fill-opacity:1;fill-rule:nonzero;stroke:none"
         id="path150" />
      <path
         d="m 743.266,1804.69 h 36.386 v 107.93 h -36.386 v -107.93"
         style="fill:#2d3766;fill-opacity:1;fill-rule:nonzero;stroke:none"
         id="path152" />
      <path
         d="m 833.613,1912.62 h -36.386 v -107.93 h 85.109 v 28.22 h -48.723 v 79.71"
         style="fill:#2d3766;fill-opacity:1;fill-rule:nonzero;stroke:none"
         id="path154" />
      <path
         d="m 928.734,1832.91 v 79.71 h -36.386 v -107.93 h 85.101 v 28.22 h -48.715"
         style="fill:#2d3766;fill-opacity:1;fill-rule:nonzero;stroke:none"
         id="path156" />
      <path
         d="m 2410.39,3755.18 -152.59,253.02 -504.67,-304.34 152.59,-253.02 504.67,304.34"
         style="fill:#00a654;fill-opacity:1;fill-rule:nonzero;stroke:none"
         id="path158" />
      <path
         d="m 2213.51,3947.1 -385.66,-232.57 c 8.88,-16.81 3.69,-37.75 -12.01,-48.47 l 85.7,-142.12 c 16.81,8.89 37.75,3.7 48.47,-12 l 385.66,232.56 c -8.88,16.82 -3.69,37.76 12.01,48.48 l -85.7,142.11 c -16.81,-8.88 -37.75,-3.69 -48.47,12.01 z M 1822,3716.02 l 392.91,236.94 1.11,-1.83 c 9.46,-15.7 29.92,-20.77 45.61,-11.3 l 1.84,1.11 90.07,-149.36 -1.84,-1.12 c -15.68,-9.46 -20.75,-29.92 -11.29,-45.6 l 1.1,-1.85 -392.9,-236.93 -1.11,1.83 c -9.46,15.7 -29.92,20.76 -45.61,11.3 l -1.84,-1.11 -90.07,149.36 1.84,1.12 c 15.68,9.46 20.75,29.92 11.29,45.6 l -1.11,1.84"
         style="fill:#088f49;fill-opacity:1;fill-rule:nonzero;stroke:none"
         id="path160" />
      <path
         d="m 2058.4,3705.29 c 1.98,0.15 4.27,0.48 6.84,0.99 1.75,0.34 3.63,0.77 5.65,1.27 3.83,0.96 8.14,2.19 12.94,3.71 l 0.08,0.05 c 3.23,1.04 5.65,1.79 7.25,2.26 1.6,0.47 3.63,0.97 6.06,1.51 2.44,0.53 4.33,0.76 5.67,0.68 1.33,-0.06 2.69,-0.41 4.04,-0.99 1.36,-0.6 2.43,-1.52 3.22,-2.78 1.43,-2.3 1.45,-4.73 0.06,-7.31 -1.39,-2.58 -3.58,-4.8 -6.59,-6.68 -3.38,-2.12 -6.71,-3.02 -9.98,-2.7 -3.27,0.31 -5.9,2.05 -7.88,5.21 l -31.08,-19.54 c 4.56,-7.29 10.06,-12.6 16.52,-15.93 v 0 c 1.81,-0.94 3.7,-1.71 5.66,-2.33 0.47,-0.15 0.94,-0.29 1.42,-0.42 8.57,-2.35 17.93,-1.56 28.09,2.33 l 7.01,-11.22 25.07,15.67 -6.91,11.06 c 2.09,1.89 3.97,3.84 5.66,5.81 1.14,1.35 2.19,2.71 3.14,4.09 3.41,4.92 5.61,10.07 6.62,15.46 1.71,9.11 -0.25,18.18 -5.89,27.19 -0.17,0.27 -0.34,0.55 -0.51,0.81 -1.02,1.57 -2.09,3.03 -3.21,4.36 -0.63,0.77 -1.28,1.49 -1.94,2.17 -2.04,2.11 -4.03,3.83 -5.96,5.16 -1.94,1.34 -4.13,2.39 -6.6,3.17 -2.46,0.78 -4.65,1.35 -6.58,1.7 -1.93,0.35 -4.27,0.42 -7.03,0.22 -2.76,-0.21 -5.03,-0.43 -6.82,-0.67 -1.78,-0.24 -4.13,-0.74 -7.03,-1.5 -2.91,-0.75 -5.11,-1.37 -6.6,-1.84 -1.49,-0.48 -3.65,-1.18 -6.49,-2.12 -2.77,-0.89 -4.78,-1.54 -6.02,-1.93 -1.23,-0.4 -2.97,-0.9 -5.22,-1.49 -2.24,-0.61 -3.96,-0.93 -5.16,-0.95 -1.19,-0.03 -2.53,0.01 -4,0.12 -1.47,0.1 -2.7,0.48 -3.69,1.16 -0.99,0.67 -1.84,1.58 -2.56,2.73 -1.74,2.79 -1.88,5.77 -0.42,8.97 0.73,1.6 1.72,3.07 2.97,4.42 1.14,1.23 2.49,2.36 4.06,3.38 0.13,0.09 0.27,0.18 0.41,0.26 3.71,2.32 7.46,3.27 11.25,2.87 1.39,-0.15 2.68,-0.51 3.87,-1.1 1.59,-0.78 3,-1.96 4.21,-3.52 0.34,-0.43 0.66,-0.9 0.97,-1.39 l 32.03,20.01 c -6.31,10.11 -14.42,16.58 -24.33,19.43 -0.67,0.2 -1.35,0.37 -2.04,0.53 -2.35,0.56 -4.75,0.9 -7.19,1.03 -7.26,0.42 -14.92,-0.96 -22.98,-4.15 l -7.32,11.71 -25.07,-15.66 7.32,-11.71 c -2.92,-2.69 -5.47,-5.45 -7.63,-8.3 -1.6,-2.12 -3.01,-4.29 -4.2,-6.49 -2.06,-3.84 -3.51,-7.82 -4.33,-11.95 -0.83,-4.13 -0.93,-8.28 -0.29,-12.43 0.25,-1.67 0.63,-3.35 1.13,-5.03 1.15,-3.92 2.96,-7.85 5.41,-11.78 l 0.72,-1.15 c 8.04,-12.14 19.44,-17.62 34.2,-16.44"
         style="fill:#088f49;fill-opacity:1;fill-rule:nonzero;stroke:none"
         id="path162" />
      <path
         d="m 2194.11,3797.27 c -9.9,16.41 -4.62,37.74 11.79,47.64 16.42,9.9 37.75,4.61 47.65,-11.8 9.9,-16.41 4.61,-37.75 -11.8,-47.64 -16.41,-9.9 -37.75,-4.62 -47.64,11.8"
         style="fill:#088f49;fill-opacity:1;fill-rule:nonzero;stroke:none"
         id="path164" />
      <path
         d="m 1909.97,3625.92 c -9.9,16.42 -4.61,37.75 11.8,47.65 16.41,9.9 37.75,4.62 47.64,-11.8 9.9,-16.42 4.62,-37.74 -11.79,-47.65 -16.42,-9.89 -37.75,-4.61 -47.65,11.8"
         style="fill:#088f49;fill-opacity:1;fill-rule:nonzero;stroke:none"
         id="path166" />
      <path
         d="m 2019.63,3818.96 c 0,-100.21 -81.24,-181.44 -181.44,-181.44 -100.21,0 -181.44,81.23 -181.44,181.44 0,100.2 81.23,181.44 181.44,181.44 100.2,0 181.44,-81.24 181.44,-181.44"
         style="fill:#fbc607;fill-opacity:1;fill-rule:nonzero;stroke:none"
         id="path168" />
      <path
         d="m 1838.23,3681.24 c -76.21,0 -137.83,61.62 -137.83,137.64 0,76.21 61.62,137.82 137.83,137.82 76.01,0 137.63,-61.61 137.63,-137.82 0,-76.02 -61.62,-137.64 -137.63,-137.64 z m -0.01,295.51 c -87.25,0 -157.87,-70.61 -157.87,-157.86 0,-87.08 70.62,-157.87 157.87,-157.87 87.07,0 157.86,70.79 157.86,157.87 0,87.25 -70.79,157.86 -157.86,157.86"
         style="fill:#f79119;fill-opacity:1;fill-rule:nonzero;stroke:none"
         id="path170" />
      <path
         d="m 1913.03,3785.95 c 0,-15.2 -4.48,-27.55 -13.44,-37.06 -8.96,-9.51 -21.2,-15.7 -36.74,-18.59 v -18.22 h -38.97 v 18.22 c -16.14,2.96 -28.75,9.51 -37.83,19.61 -9.09,10.1 -13.63,23.01 -13.63,38.72 h 49.8 c 0,-5.6 1.97,-9.96 5.92,-13.05 3.95,-3.11 8.81,-4.65 14.58,-4.65 5.44,0 10.09,1.27 13.95,3.82 3.87,2.55 5.8,5.99 5.8,10.31 0,1.79 -0.32,3.4 -0.96,4.85 -0.64,1.44 -1.74,2.73 -3.31,3.88 -1.57,1.14 -3.03,2.12 -4.39,2.93 -1.36,0.8 -3.51,1.65 -6.44,2.54 -2.92,0.9 -5.22,1.55 -6.87,1.98 -1.66,0.42 -4.35,1.11 -8.09,2.03 -3.82,0.94 -6.73,1.66 -8.72,2.17 -2,0.51 -4.89,1.36 -8.67,2.55 -3.77,1.19 -6.74,2.27 -8.91,3.24 -2.16,0.98 -4.86,2.32 -8.09,4.02 -3.23,1.7 -5.79,3.41 -7.7,5.15 -1.92,1.75 -3.98,3.91 -6.18,6.51 -2.21,2.59 -3.93,5.3 -5.16,8.14 -1.23,2.84 -2.25,6.16 -3.06,9.93 -0.8,3.78 -1.21,7.85 -1.21,12.17 0,14.01 4.14,25.52 12.42,34.51 8.28,9.01 19.94,14.87 34.96,17.58 v 17.2 h 38.97 v -17.45 c 14.86,-2.89 26.31,-9.05 34.33,-18.47 8.02,-9.42 12.04,-21.4 12.04,-35.92 l -48.4,-0.12 c 0,4.92 -1.72,8.7 -5.16,11.33 -3.44,2.63 -7.79,3.95 -13.05,3.95 -4.67,0 -8.69,-0.96 -12.04,-2.86 -3.36,-1.92 -5.03,-4.65 -5.03,-8.23 0,-1.95 0.55,-3.73 1.66,-5.34 1.1,-1.61 2.37,-2.93 3.81,-3.95 1.45,-1.02 3.72,-2.08 6.82,-3.19 3.1,-1.1 5.71,-1.95 7.83,-2.53 2.12,-0.6 5.35,-1.45 9.68,-2.55 h 0.13 c 14.86,-3.83 25.73,-7.52 32.6,-11.09 17.32,-9 26.24,-23.09 26.75,-42.28 v -1.79"
         style="fill:#f79119;fill-opacity:1;fill-rule:nonzero;stroke:none"
         id="path172" />
      <path
         d="m 2437.02,3372.66 -6.77,295.39 -589.18,-13.5 6.77,-295.39 589.18,13.5"
         style="fill:#00a654;fill-opacity:1;fill-rule:nonzero;stroke:none"
         id="path174" />
      <path
         d="m 2361.46,3637.02 -450.24,-10.31 c -0.64,-19 -15.54,-34.6 -34.5,-36.11 l 3.81,-165.92 c 19,-0.63 34.6,-15.54 36.11,-34.49 l 450.24,10.31 c 0.63,19 15.53,34.61 34.49,36.11 l -3.8,165.92 c -19.01,0.64 -34.6,15.54 -36.11,34.49 z m -454.57,-6.12 458.7,10.51 0.05,-2.15 c 0.42,-18.31 15.66,-32.87 33.97,-32.45 l 2.15,0.05 4,-174.38 -2.15,-0.05 c -18.32,-0.42 -32.87,-15.66 -32.45,-33.97 l 0.05,-2.15 -458.71,-10.51 -0.05,2.15 c -0.41,18.31 -15.66,32.87 -33.97,32.45 l -2.15,-0.05 -4,174.38 2.15,0.05 c 18.32,0.42 32.88,15.66 32.46,33.97 l -0.05,2.15"
         style="fill:#088f49;fill-opacity:1;fill-rule:nonzero;stroke:none"
         id="path176" />
      <path
         d="m 2106.73,3504.17 c 1.81,-0.84 3.95,-1.69 6.44,-2.53 1.69,-0.56 3.53,-1.14 5.54,-1.71 3.79,-1.06 8.14,-2.13 13.07,-3.2 l 0.09,0.01 c 3.32,-0.71 5.79,-1.26 7.41,-1.65 1.63,-0.38 3.64,-0.96 6.01,-1.7 2.39,-0.74 4.14,-1.48 5.26,-2.22 1.13,-0.72 2.13,-1.68 3.01,-2.88 0.89,-1.18 1.36,-2.52 1.42,-4 0.1,-2.71 -1.09,-4.82 -3.57,-6.37 -2.49,-1.55 -5.5,-2.39 -9.04,-2.53 -3.99,-0.15 -7.33,0.72 -10.01,2.61 -2.69,1.9 -4.1,4.71 -4.24,8.44 l -36.68,-1.52 c 0.33,-8.59 2.47,-15.93 6.42,-22.03 v 0 c 1.1,-1.72 2.36,-3.33 3.75,-4.84 0.34,-0.36 0.68,-0.71 1.02,-1.06 6.28,-6.29 14.79,-10.27 25.54,-11.93 l 0.52,-13.22 29.53,1.14 -0.5,13.04 c 2.76,0.6 5.36,1.35 7.8,2.23 1.66,0.6 3.24,1.26 4.76,1.99 5.4,2.58 9.87,5.95 13.42,10.12 6.01,7.07 8.81,15.91 8.4,26.54 -0.02,0.31 -0.03,0.63 -0.05,0.95 -0.1,1.87 -0.31,3.67 -0.61,5.39 -0.18,0.96 -0.38,1.91 -0.61,2.84 -0.73,2.84 -1.6,5.32 -2.61,7.44 -1.02,2.12 -2.4,4.13 -4.15,6.02 -1.75,1.9 -3.38,3.48 -4.88,4.74 -1.49,1.27 -3.49,2.5 -5.99,3.69 -2.49,1.19 -4.58,2.13 -6.25,2.8 -1.67,0.68 -3.95,1.41 -6.85,2.2 -2.9,0.79 -5.11,1.35 -6.64,1.68 -1.53,0.32 -3.75,0.78 -6.68,1.38 -2.85,0.6 -4.92,1.03 -6.18,1.31 -1.27,0.27 -3.03,0.7 -5.28,1.3 -2.24,0.58 -3.89,1.17 -4.95,1.73 -1.05,0.58 -2.19,1.27 -3.41,2.09 -1.23,0.82 -2.1,1.78 -2.63,2.86 -0.52,1.07 -0.81,2.28 -0.86,3.64 -0.13,3.27 1.23,5.94 4.08,7.98 1.44,1.03 3.03,1.81 4.78,2.37 1.6,0.5 3.34,0.81 5.2,0.92 0.17,0.01 0.32,0.02 0.48,0.02 4.38,0.17 8.11,-0.86 11.19,-3.1 1.14,-0.82 2.08,-1.78 2.82,-2.88 0.99,-1.46 1.63,-3.18 1.91,-5.15 0.07,-0.54 0.12,-1.1 0.15,-1.69 l 37.74,1.47 c -0.46,11.9 -4.28,21.55 -11.47,28.94 -0.49,0.51 -0.99,1 -1.51,1.48 -1.76,1.65 -3.67,3.13 -5.73,4.47 -6.09,3.97 -13.42,6.57 -22,7.8 l -0.54,13.81 -29.54,-1.14 0.54,-13.81 c -3.86,-0.87 -7.45,-2.01 -10.74,-3.41 -2.45,-1.04 -4.74,-2.22 -6.88,-3.55 -3.7,-2.31 -6.92,-5.04 -9.69,-8.21 -2.77,-3.19 -4.91,-6.73 -6.42,-10.65 -0.61,-1.58 -1.12,-3.22 -1.53,-4.92 -0.94,-3.98 -1.32,-8.29 -1.14,-12.92 l 0.05,-1.35 c 0.95,-14.53 8.12,-24.95 21.51,-31.27"
         style="fill:#088f49;fill-opacity:1;fill-rule:nonzero;stroke:none"
         id="path178" />
      <path
         d="m 2270.21,3516.61 c -0.44,19.16 14.74,35.05 33.9,35.49 19.16,0.44 35.05,-14.73 35.49,-33.9 0.44,-19.16 -14.74,-35.05 -33.9,-35.49 -19.17,-0.44 -35.06,14.73 -35.49,33.9"
         style="fill:#088f49;fill-opacity:1;fill-rule:nonzero;stroke:none"
         id="path180" />
      <path
         d="m 1938.49,3509.02 c -0.44,19.16 14.74,35.05 33.91,35.48 19.16,0.44 35.05,-14.73 35.49,-33.9 0.44,-19.16 -14.74,-35.05 -33.91,-35.49 -19.16,-0.44 -35.05,14.74 -35.49,33.91"
         style="fill:#088f49;fill-opacity:1;fill-rule:nonzero;stroke:none"
         id="path182" />
      <path
         d="m 1966.88,3322.73 c 0,-59.57 -48.3,-107.86 -107.87,-107.86 -59.57,0 -107.86,48.29 -107.86,107.86 0,59.57 48.29,107.86 107.86,107.86 59.57,0 107.87,-48.29 107.87,-107.86"
         style="fill:#fbc607;fill-opacity:1;fill-rule:nonzero;stroke:none"
         id="path184" />
      <path
         d="m 1859.04,3240.86 c -45.31,0 -81.94,36.63 -81.94,81.82 0,45.3 36.63,81.93 81.94,81.93 45.18,0 81.81,-36.63 81.81,-81.93 0,-45.19 -36.63,-81.82 -81.81,-81.82 z m -0.01,175.67 c -51.87,0 -93.84,-41.98 -93.84,-93.84 0,-51.77 41.97,-93.85 93.84,-93.85 51.77,0 93.85,42.08 93.85,93.85 0,51.86 -42.08,93.84 -93.85,93.84"
         style="fill:#f79119;fill-opacity:1;fill-rule:nonzero;stroke:none"
         id="path186" />
      <path
         d="m 1903.51,3303.11 c 0,-9.03 -2.67,-16.38 -7.99,-22.03 -5.33,-5.66 -12.61,-9.34 -21.84,-11.06 v -10.83 h -23.18 v 10.83 c -9.59,1.77 -17.08,5.66 -22.48,11.66 -5.4,6.01 -8.1,13.68 -8.1,23.02 h 29.6 c 0,-3.33 1.17,-5.92 3.52,-7.76 2.35,-1.85 5.24,-2.77 8.67,-2.77 3.23,0 6,0.76 8.29,2.28 2.3,1.51 3.45,3.55 3.45,6.13 0,1.06 -0.19,2.01 -0.57,2.87 -0.38,0.86 -1.03,1.63 -1.97,2.32 -0.93,0.68 -1.8,1.26 -2.61,1.73 -0.81,0.48 -2.08,0.99 -3.83,1.52 -1.74,0.54 -3.1,0.93 -4.08,1.17 -0.99,0.25 -2.59,0.66 -4.81,1.21 -2.27,0.56 -4,0.99 -5.19,1.29 -1.19,0.3 -2.9,0.81 -5.15,1.51 -2.24,0.72 -4.01,1.36 -5.29,1.94 -1.29,0.57 -2.89,1.37 -4.81,2.38 -1.92,1.02 -3.45,2.03 -4.58,3.07 -1.14,1.03 -2.37,2.32 -3.68,3.86 -1.31,1.54 -2.33,3.16 -3.06,4.85 -0.73,1.69 -1.34,3.66 -1.82,5.91 -0.48,2.24 -0.72,4.64 -0.72,7.22 0,8.33 2.46,15.17 7.38,20.52 4.92,5.35 11.85,8.83 20.79,10.45 v 10.22 h 23.16 v -10.38 c 8.84,-1.71 15.64,-5.37 20.41,-10.97 4.77,-5.6 7.16,-12.72 7.16,-21.35 l -28.78,-0.08 c 0,2.93 -1.02,5.18 -3.07,6.74 -2.04,1.56 -4.62,2.35 -7.75,2.35 -2.78,0 -5.16,-0.57 -7.16,-1.71 -1.99,-1.13 -2.99,-2.76 -2.99,-4.88 0,-1.16 0.33,-2.22 0.99,-3.18 0.65,-0.96 1.41,-1.74 2.27,-2.35 0.85,-0.6 2.2,-1.24 4.04,-1.89 1.85,-0.66 3.4,-1.16 4.66,-1.51 1.26,-0.36 3.18,-0.86 5.75,-1.52 h 0.08 c 8.84,-2.26 15.3,-4.46 19.39,-6.58 10.29,-5.35 15.59,-13.73 15.9,-25.14 v -1.06"
         style="fill:#f79119;fill-opacity:1;fill-rule:nonzero;stroke:none"
         id="path188" />
      <path
         d="m 2345.47,3638.76 c 0,-50.06 -40.58,-90.63 -90.63,-90.63 -50.05,0 -90.63,40.57 -90.63,90.63 0,50.05 40.58,90.63 90.63,90.63 50.05,0 90.63,-40.58 90.63,-90.63"
         style="fill:#fbc607;fill-opacity:1;fill-rule:nonzero;stroke:none"
         id="path190" />
      <path
         d="m 2254.86,3569.97 c -38.07,0 -68.84,30.77 -68.84,68.74 0,38.07 30.77,68.85 68.84,68.85 37.97,0 68.75,-30.78 68.75,-68.85 0,-37.97 -30.78,-68.74 -68.75,-68.74 z m 0,147.61 c -43.59,0 -78.86,-35.27 -78.86,-78.86 0,-43.49 35.27,-78.85 78.86,-78.85 43.49,0 78.85,35.36 78.85,78.85 0,43.59 -35.36,78.86 -78.85,78.86"
         style="fill:#f79119;fill-opacity:1;fill-rule:nonzero;stroke:none"
         id="path192" />
      <path
         d="m 2292.23,3622.27 c 0,-7.59 -2.24,-13.76 -6.72,-18.51 -4.47,-4.75 -10.59,-7.85 -18.35,-9.28 v -9.11 h -19.46 v 9.11 c -8.07,1.48 -14.37,4.74 -18.9,9.79 -4.54,5.05 -6.81,11.49 -6.81,19.34 h 24.88 c 0,-2.8 0.98,-4.97 2.95,-6.52 1.98,-1.55 4.4,-2.32 7.29,-2.32 2.71,0 5.03,0.63 6.96,1.9 1.94,1.27 2.9,3 2.9,5.16 0,0.89 -0.16,1.7 -0.48,2.42 -0.32,0.71 -0.86,1.36 -1.65,1.93 -0.79,0.58 -1.52,1.07 -2.2,1.47 -0.68,0.4 -1.75,0.83 -3.21,1.27 -1.46,0.45 -2.61,0.77 -3.43,0.99 -0.83,0.21 -2.18,0.55 -4.05,1.02 -1.9,0.46 -3.36,0.82 -4.35,1.07 -1,0.26 -2.44,0.69 -4.33,1.27 -1.89,0.6 -3.37,1.15 -4.45,1.64 -1.08,0.47 -2.43,1.15 -4.04,2 -1.62,0.85 -2.9,1.71 -3.85,2.58 -0.95,0.86 -1.98,1.94 -3.09,3.24 -1.1,1.29 -1.96,2.64 -2.57,4.07 -0.62,1.42 -1.12,3.08 -1.53,4.96 -0.4,1.89 -0.61,3.92 -0.61,6.07 0,7.01 2.08,12.75 6.21,17.25 4.14,4.49 9.96,7.42 17.46,8.78 v 8.58 h 19.47 v -8.72 c 7.42,-1.43 13.14,-4.51 17.14,-9.22 4.01,-4.7 6.01,-10.69 6.01,-17.93 l -24.17,-0.07 c 0,2.46 -0.86,4.34 -2.57,5.66 -1.72,1.32 -3.9,1.97 -6.53,1.97 -2.33,0 -4.33,-0.47 -6.01,-1.42 -1.67,-0.96 -2.51,-2.33 -2.51,-4.11 0,-0.98 0.28,-1.87 0.83,-2.67 0.55,-0.81 1.18,-1.46 1.91,-1.97 0.71,-0.51 1.85,-1.05 3.4,-1.59 1.55,-0.56 2.85,-0.98 3.91,-1.27 1.06,-0.31 2.67,-0.73 4.83,-1.28 h 0.07 c 7.42,-1.91 12.85,-3.75 16.29,-5.53 8.65,-4.5 13.1,-11.54 13.36,-21.12 v -0.9"
         style="fill:#f79119;fill-opacity:1;fill-rule:nonzero;stroke:none"
         id="path194" />
      <path
         d="m 1013.81,2949.75 c 0,11.6 11.99,18.93 34.09,29.04 22.1,10.1 54.29,20.83 70.07,20.83 15.78,0 57.45,-53.66 53.67,-66.29 11.99,-7.58 13.25,-27.15 -3.79,-34.09 6.31,-12.63 2.39,-30.04 -8.21,-32.82 0.63,-15.78 -10.86,-27.05 -27.14,-35.36 -16.29,-8.3 -58.09,-17.04 -85.23,-13.89 -27.15,3.16 -33.46,93.44 -33.46,132.58"
         style="fill:#f79379;fill-opacity:1;fill-rule:nonzero;stroke:none"
         id="path196" />
      <path
         d="m 1063.4,2944.96 c 0,0 37.63,15.05 49.21,13.9 11.57,-1.16 23.16,-16.21 23.16,-16.21 0,0 -50.37,8.1 -72.37,2.31"
         style="fill:#2d3766;fill-opacity:1;fill-rule:nonzero;stroke:none"
         id="path198" />
      <path
         d="m 1169.11,2899.74 c -0.21,1.47 -1.46,2.14 -2.81,2.12 -23.2,-0.3 -46.41,-0.61 -69.62,-0.92 -6.62,-0.08 -13.25,-0.17 -19.88,-0.25 -1.35,-0.02 -2.29,-1.61 -2.12,-2.82 0.21,-1.47 1.46,-2.13 2.81,-2.12 23.2,0.31 46.41,0.61 69.61,0.92 6.63,0.08 13.26,0.17 19.89,0.26 1.34,0.02 2.29,1.6 2.12,2.81"
         style="fill:#2d3766;fill-opacity:1;fill-rule:nonzero;stroke:none"
         id="path200" />
      <path
         d="m 1097.87,2898.51 c -0.81,1.02 -2.46,1.29 -3.49,0.41 -2.32,-1.98 -4.56,-3.31 -7.42,-4.41 -1.49,-0.56 -2.43,-0.83 -3.97,-1.12 -1.48,-0.27 -2.99,-0.42 -4.49,-0.45 -1.35,-0.03 -2.29,-1.59 -2.12,-2.81 0.21,-1.47 1.46,-2.15 2.81,-2.12 6.65,0.14 13.22,2.7 18.27,7 1.03,0.88 1.27,2.41 0.41,3.5"
         style="fill:#2d3766;fill-opacity:1;fill-rule:nonzero;stroke:none"
         id="path202" />
      <path
         d="m 1161.59,2868.93 c -0.58,1.32 -2,1.71 -3.27,1.29 -23.57,-7.76 -48.16,-12.21 -72.95,-13.3 -3.2,-0.15 -2.48,-5.08 0.69,-4.93 25.24,1.12 50.24,5.76 74.23,13.66 1.28,0.43 1.79,2.12 1.3,3.28"
         style="fill:#2d3766;fill-opacity:1;fill-rule:nonzero;stroke:none"
         id="path204" />
      <path
         d="m 815.344,3063.75 c 0,0 54.961,71.11 160.316,53.94 -26.621,-73.99 -160.316,-53.94 -160.316,-53.94"
         style="fill:#2d3766;fill-opacity:1;fill-rule:nonzero;stroke:none"
         id="path206" />
      <path
         d="m 929.988,3170.78 c 0,0 -24.175,47.52 -50.027,74.21 -25.852,26.68 -45.863,31.68 -68.375,43.36 -22.516,11.67 -40.859,35.85 -50.863,29.18 -10.008,-6.67 5.836,-40.86 16.675,-50.03 10.84,-9.17 40.86,-24.18 49.2,-35.85 8.336,-11.68 13.34,-49.2 31.683,-59.21 18.344,-10 71.707,-1.66 71.707,-1.66"
         style="fill:#f46f55;fill-opacity:1;fill-rule:nonzero;stroke:none"
         id="path208" />
      <path
         d="m 629.887,3272.41 c 3.812,10.15 38.789,-11.67 53.687,-27.23 13.821,-14.44 34.817,-30.78 61.594,-40.45 33.465,-27.52 78.309,-46.5 78.309,-46.5 0,0 -91.7,9.31 -128.141,39.8 -36.445,30.5 -66.969,70.33 -65.449,74.38"
         style="fill:#f46f55;fill-opacity:1;fill-rule:nonzero;stroke:none"
         id="path210" />
      <path
         d="m 673.027,3308.26 c -1.711,7.52 24.739,6.49 38.528,-22.3 11.058,-23.09 33.656,-62.04 53.933,-71.37 20.274,-9.32 109.18,11.24 136.66,-8.11 28.79,-20.28 91.243,-141.53 91.243,-141.53 0,0 -30.825,-34.06 -104.219,-39.74 -22.711,73 -54.746,126.52 -65.695,133.02 -43.793,8.51 -77.864,16.62 -94.082,34.06 -16.219,17.43 -54.336,107.05 -56.368,115.97"
         style="fill:#f79379;fill-opacity:1;fill-rule:nonzero;stroke:none"
         id="path212" />
      <path
         d="m 1635.9,1260.47 c 0,0 14.86,-97.8 17.56,-130.4 2.7,-32.6 -2.7,-95.29 -2.7,-95.29 l 295.62,-19.91 -22.96,59.7 c 0,0 -114.64,45.47 -129.49,65.53 -14.86,20.07 -12.16,149.22 -12.16,149.22 l -145.87,-28.85"
         style="fill:#f79379;fill-opacity:1;fill-rule:nonzero;stroke:none"
         id="path214" />
      <path
         d="m 1647.99,1053.34 c 0.66,3.14 229.09,-20.15 229.09,-20.15 l 24.98,59.47 c 0,0 143.31,-43.35 176.97,-110.879 -200.86,0 -432.13,0 -432.13,0 0,0 -6.51,35.279 1.09,71.559"
         style="fill:#2d3766;fill-opacity:1;fill-rule:nonzero;stroke:none"
         id="path216" />
      <path
         d="m 1435.73,1260.47 c 0,0 -14.86,-97.8 -17.56,-130.4 -2.7,-32.6 2.7,-95.29 2.7,-95.29 l -295.63,-19.91 22.97,59.7 c 0,0 114.63,45.47 129.49,65.53 14.86,20.07 12.16,149.22 12.16,149.22 l 145.87,-28.85"
         style="fill:#f79379;fill-opacity:1;fill-rule:nonzero;stroke:none"
         id="path218" />
      <path
         d="m 1423.64,1053.34 c -0.66,3.14 -229.09,-20.15 -229.09,-20.15 l -24.97,59.47 c 0,0 -143.33,-43.35 -176.982,-110.879 200.862,0 432.122,0 432.122,0 0,0 6.52,35.279 -1.08,71.559"
         style="fill:#2d3766;fill-opacity:1;fill-rule:nonzero;stroke:none"
         id="path220" />
      <path
         d="m 1869.26,1246.8 h -262.22 l -42.1,1060.11 h -56.15 l -22.88,-1050.29 -240.73,-1.45 c 0,0 -7.66,398.83 -2.6,504.75 12.23,256.05 10.86,507.96 17.34,632.32 1.91,36.48 4.48,61.99 8.29,73.4 374.87,0 545.12,-26.89 545.12,-26.89 0,0 0.68,-17.24 1.87,-46.51 5.28,-130.3 20.55,-498.93 30.52,-646.88 8.03,-119.23 23.54,-498.56 23.54,-498.56"
         style="fill:#fbc607;fill-opacity:1;fill-rule:nonzero;stroke:none"
         id="path222" />
      <path
         d="m 1815.2,2392.24 h -555.28 c 1.91,36.48 4.48,61.99 8.29,73.4 374.87,0 545.12,-26.89 545.12,-26.89 0,0 0.68,-17.24 1.87,-46.51"
         style="fill:#f79119;fill-opacity:1;fill-rule:nonzero;stroke:none"
         id="path224" />
      <path
         d="m 1683.51,3306.74 c -1.51,3.75 -2.97,7.52 -4.15,11.39 -6.8,22.33 -3.53,46.35 0.02,69.42 3.54,23.08 7.27,46.94 1.31,69.51 -4.82,18.27 -16.93,33.85 -34.18,41.7 -3.96,1.81 -40.38,17.4 -40.82,14.3 0.07,0.48 7.98,56.48 -52.95,52.94 -36.78,0 -78.76,-16.27 -110.45,-33.63 -17.26,-9.46 -33.75,-21.64 -46.24,-37 -15.82,-19.43 -21.28,-54.15 -29.47,-77.85 -6.36,-18.42 -13.29,-37.71 -27.93,-50.57 -14.3,-12.58 -33.73,-17.06 -52.01,-22.41 -18.29,-5.35 -37.48,-12.94 -47.82,-28.93 -8.79,-13.59 -9.51,-30.75 -8.85,-46.92 0.66,-16.17 2.37,-32.76 -2.44,-48.21 -5.4,-17.36 -17.09,-22.06 -31.02,-30.91 -11.67,-7.42 -23.01,-17.86 -31.74,-28.51 -19.18,-23.41 -28.36,-54.07 -22.91,-84.07 7.6,-41.8 63.67,-83.62 90.27,-88.36 26.61,-4.76 297.44,-44.67 371.56,26.6 74.12,71.28 45.62,156.79 51.32,186.26 6.32,32.65 44.98,49.81 34.76,87.95 -1.59,5.92 -3.97,11.6 -6.26,17.3"
         style="fill:#2d3766;fill-opacity:1;fill-rule:nonzero;stroke:none"
         id="path226" />
      <path
         d="m 2126.87,2948.05 c -14.24,21.14 -140.15,63.89 -179.01,46.01 -38.87,-17.88 42.75,-81.61 104.15,-81.61 61.4,0 74.86,35.6 74.86,35.6"
         style="fill:#2d3766;fill-opacity:1;fill-rule:nonzero;stroke:none"
         id="path228" />
      <path
         d="m 2126.87,2948.05 c 0,0 -67.47,-291.9 -180.38,-290.53 -60.55,0.74 -120.3,66.02 -163.55,126.63 -37.4,52.41 -62.47,101.31 -65.02,101.95 0,0 -27.18,101.31 -36.01,187.66 -4.37,42.56 -4.28,81.5 5.72,102.85 19.04,-0.33 64.72,-27.53 79.87,-46.81 15.14,-19.27 152.83,-243.7 152.83,-243.7 0,0 13.93,39.32 29.08,91.63 92.49,-73.83 177.46,-29.68 177.46,-29.68"
         style="fill:#4e7ec8;fill-opacity:1;fill-rule:nonzero;stroke:none"
         id="path230" />
      <path
         d="m 1782.94,2784.15 c -37.4,52.41 -62.47,101.31 -65.02,101.95 0,0 -27.18,101.31 -36.01,187.66 25.09,-20.34 95.98,-85.6 129.06,-159.88 4.8,-10.77 7.07,-22.5 6.57,-34.28 -1.66,-38.74 -18.64,-72.61 -34.6,-95.45"
         style="fill:#2d3766;fill-opacity:1;fill-rule:nonzero;stroke:none"
         id="path232" />
      <path
         d="m 1630.45,3183.05 c -52.92,-69.74 -80.94,-88.41 -93.39,-92.77 -12.46,-4.36 -101.49,46.7 -133.87,97.75 31.13,9.34 45.2,18.66 54.79,35.49 9.97,16.18 3.73,113.32 3.73,113.32 l 23.05,-13.26 104.6,-60.22 c 0,0 0,-15.63 0,-32.64 v -8.45 c 0,-19.87 21.78,-34.86 41.09,-39.22"
         style="fill:#f46f55;fill-opacity:1;fill-rule:nonzero;stroke:none"
         id="path234" />
      <path
         d="m 1589.36,3263.36 c 0,0 0,-15.63 0,-32.64 -83.33,-7.65 -101.28,57.97 -104.6,92.86 l 104.6,-60.22"
         style="fill:#2d3766;fill-opacity:1;fill-rule:nonzero;stroke:none"
         id="path236" />
      <path
         d="m 1625.39,3370.05 c 0,0 4.32,30.13 24.02,27.45 26.47,-2.45 17.15,-56.37 -23.04,-73.03 -4.41,33.33 -0.98,45.58 -0.98,45.58"
         style="fill:#f46f55;fill-opacity:1;fill-rule:nonzero;stroke:none"
         id="path238" />
      <path
         d="m 1620.63,3443.77 c 8.66,-11.26 13.45,-25 13.74,-39.21 0.49,-25.1 1.02,-74.41 -1.84,-96.91 -3.92,-30.88 -22.55,-51.48 -69.61,-55.88 -47.06,-4.41 -88.98,43.34 -97.06,70.59 -7.84,26.46 -4.9,47.55 -4.9,47.55 0,0 36.28,12.74 63.73,27.45 27.45,14.7 60.29,44.11 71.08,72.06 11.19,-9.55 19.18,-18.27 24.86,-25.65"
         style="fill:#f79379;fill-opacity:1;fill-rule:nonzero;stroke:none"
         id="path240" />
      <path
         d="m 1464.39,3358.14 c -0.14,2.29 -15.19,54.41 -37.25,37.74 -16.6,-12.54 -0.67,-44.93 8.82,-55.88 12.75,-14.7 28.92,-16.18 28.92,-16.18 l -0.49,34.32"
         style="fill:#f79379;fill-opacity:1;fill-rule:nonzero;stroke:none"
         id="path242" />
      <path
         d="m 1587.08,3252.71 c -0.17,1.23 -1.49,2.43 -2.8,2.12 -18.35,-4.45 -37.87,-3.25 -55.52,3.5 -16.21,6.2 -30.33,17.06 -40.74,30.93 -5.75,7.65 -10.26,16.13 -13.42,25.17 -1.06,3.01 -5.63,1.03 -4.57,-1.99 5.86,-16.73 16.43,-31.7 30.06,-43.02 14.65,-12.18 32.87,-19.7 51.8,-21.67 11.05,-1.16 22.28,-0.46 33.08,2.15 1.3,0.32 2.32,1.38 2.11,2.81"
         style="fill:#2d3766;fill-opacity:1;fill-rule:nonzero;stroke:none"
         id="path244" />
      <path
         d="m 1404.84,3200.85 c 0,0 -0.33,-0.07 -0.96,-0.19 -11.78,-2.48 -116.89,-16.64 -140.7,-42.72 -25.09,-27.47 15.05,-253.33 22.22,-286.77 0.64,-3.04 1.43,-6.63 2.31,-10.63 17.77,-80.91 17.71,-164.73 -0.11,-245.62 -17.04,-77.36 -35.65,-164.51 -35.65,-176.17 h 580.43 c -6.55,71.24 -34.14,150.84 -47.74,190.12 -9.53,27.55 -16.36,55.98 -19.8,84.92 -6.72,56.55 -0.73,102.14 19.18,168.08 2.79,9.25 3.77,18.26 1.87,26.33 -9.55,40.61 -63.3,124.22 -63.3,124.22 0,0 -3.59,120.66 -10.75,133.79 -7.17,13.15 -84.81,28.68 -84.81,28.68 0,0 -63.31,-81.23 -83.62,-93.18 -50.05,4.2 -138.57,99.14 -138.57,99.14"
         style="fill:#4e7ec8;fill-opacity:1;fill-rule:nonzero;stroke:none"
         id="path246" />
      <path
         d="m 1332.5,2920.66 c -4.37,14.63 -8.75,29.25 -13.12,43.88 -0.9,3.05 -5.77,2 -4.85,-1.08 4.37,-14.63 8.74,-29.26 13.11,-43.88 0.9,-3.04 5.77,-2 4.86,1.08"
         style="fill:#2d3766;fill-opacity:1;fill-rule:nonzero;stroke:none"
         id="path248" />
      <path
         d="m 1606.78,2809.87 c -1.72,0 -3.44,0 -5.15,0 -5.25,0 -10.51,0 -15.76,0 -7.92,0 -15.83,0 -23.74,0 -9.67,0 -19.35,0 -29.02,0 -10.55,0 -21.09,0 -31.64,0 -10.51,0 -21.03,0 -31.55,0 -9.59,0 -19.19,0 -28.78,0 -7.78,0 -15.56,0 -23.34,0 -5.06,0 -10.12,0 -15.19,0 -9.86,0 -19.32,2.65 -27.75,7.88 -12.26,7.6 -21.31,20 -24.43,34.12 -1.42,6.45 -1.7,13.05 -0.78,19.6 0.44,3.17 -4.49,3.82 -4.94,0.64 -1.75,-12.47 0.55,-25.51 6.56,-36.58 5.84,-10.77 14.94,-19.38 25.91,-24.81 3.39,-1.68 6.94,-3.03 10.58,-4.03 1.82,-0.5 3.68,-0.9 5.54,-1.22 4.98,-0.86 10.22,-0.54 15.3,-0.54 6.69,0 13.39,0 20.09,0 9,0 18,0 27.01,0 10.38,0 20.76,0 31.13,0 10.81,0 21.62,0 32.43,0 10.3,0 20.61,0 30.91,0 8.86,0 17.72,0 26.58,0 6.48,0 12.96,0 19.43,0 3.16,0 6.32,0 9.47,0 0.17,0 0.33,0 0.49,0 1.34,0 2.6,0.7 2.79,2.15 0.15,1.19 -0.8,2.79 -2.15,2.79"
         style="fill:#2d3766;fill-opacity:1;fill-rule:nonzero;stroke:none"
         id="path250" />
      <path
         d="m 1905.51,3215.48 c 0,0 -92.35,-16.91 -92.35,-90.5 0,-73.58 0,-1974.48 0,-2016.73 0,-42.24 -51.05,-126.719 -127.64,-126.719 168.19,0 180.21,0 180.21,0 0,0 97.61,10.891 97.61,121.279 0,110.37 0,2103.94 0,2103.94 l -57.83,8.73"
         style="fill:#eff4fb;fill-opacity:1;fill-rule:nonzero;stroke:none"
         id="path252" />
      <path
         d="M 1960.12,2870.24 V 1087.07 c 0,-6.96 10.87,-8.44 10.87,-1.41 v 1783.16 c 0,6.96 -10.87,8.45 -10.87,1.42"
         style="fill:#c3d4ef;fill-opacity:1;fill-rule:nonzero;stroke:none"
         id="path254" />
      <path
         d="m 1964.79,3201.76 c -4.8,0.05 -38.69,0.08 -63.09,-8.86 -24.41,-8.92 -36.13,-17.38 -33.75,-21.54 2.38,-4.17 10.12,-7.73 10.12,-7.73 0,0 -13.09,-8.34 -10.72,-14.89 2.39,-6.55 17.86,-8.33 29.17,-7.14 -20.24,-13.69 -24.4,-23.8 -19.64,-28.57 4.76,-4.77 29.16,6.54 35.71,7.73 16.67,-0.59 30.95,0 30.95,0 0,0 0.6,-49.99 21.43,-66.66 0,-60.1 0,-88.68 0,-88.68 0,0 41.66,-28.56 87.49,-29.75 0,127.36 0,190.46 0,207.71 0,17.27 -31.72,57.78 -87.67,58.38"
         style="fill:#f79379;fill-opacity:1;fill-rule:nonzero;stroke:none"
         id="path256" />
      <path
         d="m 2114.44,3055.6 h -128.38 c 0,0 0,75.1 -20.6,121.12 -13.17,29.44 -38.25,37.08 -54.6,38.76 h 112.74 c 0,0 55.32,1.19 70.26,-38.76 17.65,-47.23 20.58,-121.12 20.58,-121.12"
         style="fill:#ffffff;fill-opacity:1;fill-rule:nonzero;stroke:none"
         id="path258" />
      <path
         d="m 1962.34,3146.68 c -21.59,3.25 -43.81,1.93 -64.84,-3.93 -1.3,-0.36 -2.33,-1.36 -2.12,-2.82 0.16,-1.2 1.5,-2.48 2.8,-2.11 20.65,5.75 42.32,7.11 63.52,3.93 3.17,-0.48 3.81,4.46 0.64,4.93"
         style="fill:#2d3766;fill-opacity:1;fill-rule:nonzero;stroke:none"
         id="path260" />
      <path
         d="m 1961.82,3175.78 c -21.26,2.24 -42.92,0.7 -63.62,-4.67 -5.87,-1.52 -11.66,-3.32 -17.35,-5.41 -3,-1.12 -1.03,-5.68 1.98,-4.57 19.32,7.11 39.98,10.8 60.58,10.71 5.94,-0.03 11.87,-0.37 17.77,-1 3.19,-0.33 3.83,4.6 0.64,4.94"
         style="fill:#2d3766;fill-opacity:1;fill-rule:nonzero;stroke:none"
         id="path262" />
      <path
         d="m 1702.52,2307.52 h -281.96 c -1.34,0 -2.6,-0.69 -2.79,-2.15 -0.15,-1.19 0.8,-2.78 2.15,-2.78 h 281.96 c 1.34,0 2.6,0.69 2.79,2.15 0.15,1.19 -0.79,2.78 -2.15,2.78"
         style="fill:#f79119;fill-opacity:1;fill-rule:nonzero;stroke:none"
         id="path264" />
      <path
         d="m 1291.64,981.531 c 18.82,0 64.5,13.86 68.53,85.089 4.04,71.23 0,124.98 0,149.17 0,24.18 16.14,84.66 63.16,84.66 h 131.72 c -47.04,0 -63.17,-60.48 -63.17,-84.66 0,-24.19 4.04,-77.94 0,-149.17 -4.03,-71.229 -49.72,-85.089 -68.55,-85.089 -13.48,0 -89.62,0 -131.69,0"
         style="fill:#ffffff;fill-opacity:1;fill-rule:nonzero;stroke:none"
         id="path266" />
      <path
         d="m 1551.6,981.531 c -18.82,0 -64.52,13.86 -68.55,85.089 -4.03,71.23 0,124.98 0,149.17 0,24.18 -16.12,84.66 -63.16,84.66 h 131.71 c 47.03,0 63.17,-60.48 63.17,-84.66 0,-24.19 -4.05,-77.94 0,-149.17 4.02,-71.229 49.71,-85.089 68.53,-85.089 -42.07,0 -118.21,0 -131.7,0"
         style="fill:#2d3766;fill-opacity:1;fill-rule:nonzero;stroke:none"
         id="path268" />
      <path
         d="m 975.66,3117.69 c 0,0 -51.48,-46.16 -160.316,-53.94 76.414,-194.78 149.519,-393.05 216.946,-408.03 67.42,-14.98 101.88,28.46 128.85,44.95 26.97,16.47 172.31,212.75 197.78,263.7 21.82,43.63 16.97,172 -51.75,194.71 -19.99,6.62 -41.98,-0.56 -55.29,-16.88 -65.99,-80.94 -171.15,-219.19 -171.15,-219.19 l -105.07,194.68"
         style="fill:#4e7ec8;fill-opacity:1;fill-rule:nonzero;stroke:none"
         id="path270" />
      <path
         d="m 1513.61,3621.34 0.52,49.49 51.72,-0.53 -0.51,-49.5 z m 1.79,63.88 0.05,5.46 c 0.06,6.24 0.78,11.99 2.14,17.23 1.36,5.26 2.87,9.53 4.53,12.83 1.66,3.29 4.08,6.6 7.24,9.92 3.15,3.32 5.72,5.76 7.69,7.32 1.97,1.57 4.79,3.63 8.45,6.21 3.1,2.21 5.45,3.93 7.05,5.17 1.6,1.24 3.38,2.88 5.36,4.91 1.98,2.03 3.38,4.16 4.19,6.39 0.82,2.22 1.24,4.73 1.27,7.54 0.06,5.95 -1.83,10.78 -5.66,14.45 -3.82,3.68 -8.54,5.55 -14.13,5.6 -5.78,0.06 -10.78,-1.75 -15.01,-5.43 -4.23,-3.69 -6.39,-8.74 -6.45,-15.18 l -50.05,0.52 c 0.14,13.8 3.53,25.69 10.16,35.69 6.62,10 15.27,17.38 25.95,22.17 10.68,4.78 22.67,7.11 36,6.97 20.7,-0.21 37.71,-6.27 51.06,-18.14 13.34,-11.89 19.92,-27.44 19.72,-46.63 -0.05,-5.22 -0.71,-10.11 -1.97,-14.66 -1.26,-4.55 -2.69,-8.34 -4.31,-11.35 -1.61,-3.02 -3.93,-6.11 -6.95,-9.3 -3.01,-3.18 -5.51,-5.6 -7.48,-7.26 -1.97,-1.65 -4.8,-3.86 -8.46,-6.62 -3.57,-2.67 -6.22,-4.74 -7.96,-6.21 -1.75,-1.48 -3.77,-3.46 -6.08,-5.95 -2.31,-2.49 -3.96,-5.09 -4.97,-7.78 -1.01,-2.69 -1.53,-5.67 -1.56,-8.93 l -0.06,-5.45 -49.76,0.51"
         style="fill:#2d3766;fill-opacity:1;fill-rule:nonzero;stroke:none"
         id="path272" />
      <path
         d="m 2083.36,981.781 h -712.09 l 99.76,41.209 c 0,0 -87.09,74.43 -45.92,88.68 41.18,14.27 98.19,-26.91 98.19,-26.91 0,0 -90.27,131.44 -33.26,129.87 57.01,-1.6 71.27,-44.35 71.27,-44.35 0,0 -30.09,177.37 28.51,131.44 3.16,-2.49 6.18,-5.05 9.05,-7.7 50.21,-46.2 55.89,-114.24 55.89,-114.24 0,0 31.66,109.28 72.84,80.76 40.66,-28.13 27.28,-122.66 26.95,-125.06 1.04,2.05 38.34,75.71 63.32,56.97 24.78,-18.57 -4.95,-81.05 -6.29,-83.84 2.5,3.78 85.7,129.26 99.73,96.51 14.26,-33.26 -28.51,-106.11 -28.51,-106.11 0,0 90.29,101.35 123.53,79.18 33.26,-22.16 -42.76,-104.52 -38,-102.93 4.76,1.57 140.95,80.77 133.02,33.26 -7.42,-44.54 -59.38,-71 -65.85,-74.13 6.7,2.96 63.12,26.86 94.36,6.02 17.85,-11.9 -13.56,-37.48 -46.5,-58.629"
         style="fill:#00a654;fill-opacity:1;fill-rule:nonzero;stroke:none"
         id="path274" />
      <path
         d="m 3441.71,981.781 h 712.09 l -99.76,41.209 c 0,0 87.09,74.43 45.92,88.68 -41.18,14.27 -98.18,-26.91 -98.18,-26.91 0,0 90.27,131.44 33.24,129.87 -57,-1.6 -71.26,-44.35 -71.26,-44.35 0,0 30.09,177.37 -28.51,131.44 -3.16,-2.49 -6.18,-5.05 -9.05,-7.7 -50.21,-46.2 -55.88,-114.24 -55.88,-114.24 0,0 -31.67,109.28 -72.85,80.76 -40.65,-28.13 -27.28,-122.66 -26.94,-125.06 -1.05,2.05 -38.34,75.71 -63.33,56.97 -24.78,-18.57 4.96,-81.05 6.29,-83.84 -2.5,3.78 -85.7,129.26 -99.73,96.51 -14.26,-33.26 28.51,-106.11 28.51,-106.11 0,0 -90.28,101.35 -123.53,79.18 -33.27,-22.16 42.75,-104.52 38,-102.93 -4.75,1.57 -140.95,80.77 -133.02,33.26 7.42,-44.54 59.38,-71 65.85,-74.13 -6.7,2.96 -63.12,26.86 -94.36,6.02 -17.85,-11.9 13.55,-37.48 46.5,-58.629"
         style="fill:#00a654;fill-opacity:1;fill-rule:nonzero;stroke:none"
         id="path276" />
      <g
         id="g278">
        <g
           id="g280"
           clip-path="url(#clipPath284)">
          <path
             d="m 4361.25,1201.49 c -8.79,-17.9 -19.33,-34.85 -30.51,-51.33 -10.76,-15.87 -21.57,-32.24 -33.83,-46.98 -5.8,-6.96 -12.94,-13.48 -22.06,-15.37 -8.42,-1.76 -16.99,0.8 -20.91,8.88 -8.09,16.64 5.71,34.31 15.22,46.96 20.22,26.86 46.96,53.18 81.53,58.75 3.85,0.62 7.68,0.95 11.49,1.04 -0.31,-0.64 -0.63,-1.31 -0.93,-1.95 z m -198.05,12.04 c 3.03,-20.03 4.44,-40.36 4,-60.63 -0.39,-19.01 -0.97,-39.96 -6.6,-58.27 -4.34,-14.06 -19.63,-32.64 -35.63,-21.17 -10.93,7.82 -13.55,24.57 -14.33,36.98 -3.64,58.46 9.22,118.63 34.64,171.84 1.55,-3.71 2.95,-7.48 4.25,-11.26 6.36,-18.62 10.73,-38.04 13.67,-57.49 z m 230.85,-3.86 c -4.97,1.81 -10.01,3.08 -15.07,3.9 3.36,8.16 6.31,16.49 8.75,25.04 10.98,38.5 12.21,81.78 -6.69,118.11 -16,30.74 -45.08,55.9 -80.1,60.97 -37.02,5.35 -72.37,-12.54 -99.18,-36.78 -23,-20.8 -41.47,-46.55 -56.38,-73.9 -9.45,15.59 -22.25,28.58 -39.97,34.14 -38.21,11.97 -73.23,-16.35 -88.8,-49.24 -15.78,-33.3 -19.98,-72.98 -19.14,-109.44 1.66,-72.22 28.98,-144.07 75.94,-198.99 0.02,-0.031 0.06,-0.058 0.09,-0.101 3.21,-3.758 6.51,-7.418 9.93,-11 h 15.68 c -3.67,3.601 -7.23,7.301 -10.7,11.101 -34.69,37.99 -59.3,85.05 -71.3,135.1 -7.55,31.51 -10.32,64.19 -7.52,96.48 2.87,33.18 9.83,71.45 33.35,96.65 11.61,12.43 28.67,21.53 46,21.04 15.72,-0.43 29.27,-9.01 39.11,-20.85 4.29,-5.18 7.96,-10.81 11.15,-16.72 -2.03,-4.05 -3.99,-8.13 -5.88,-12.21 -17.12,-37.13 -28.12,-77.23 -32.31,-117.9 -2.05,-19.74 -3.17,-40.34 -1.13,-60.14 1.49,-14.42 6.01,-31.4 18.34,-40.41 13.95,-10.2 31.93,-5.03 42.75,7.15 13.41,15.12 14.63,38.77 16.21,57.89 3.65,44.4 -0.83,89.25 -13.1,132.06 -3.1,10.86 -7.07,22.52 -12.33,33.55 4.89,9.27 10.15,18.3 15.79,27.03 18.69,28.92 42.27,56.58 73.19,72.82 29.08,15.29 63.21,17.2 91.66,-0.71 28.22,-17.76 45.91,-48.17 50.66,-80.83 4.9,-33.7 -2.54,-67.74 -15.77,-98.82 -26.26,0.67 -52.14,-10.39 -72.67,-27.32 -15.06,-12.44 -27.84,-27.58 -39.15,-43.44 -10.31,-14.48 -19.57,-32.15 -12.48,-50.09 6.85,-17.34 27.05,-21.56 42.87,-14.06 17.98,8.53 29.04,28.5 40.16,44.08 17.84,25.01 35.3,50.97 48.25,78.95 23.41,-3.14 43.83,-17.01 52.14,-41.36 10.86,-31.86 1.96,-69.38 -8.02,-100.29 -8.85,-27.46 -21.46,-53.64 -37.4,-77.65 -2.49,-3.75 -5.07,-7.46 -7.72,-11.101 h 13.64 c 2.52,3.641 4.98,7.351 7.35,11.101 6.23,9.829 11.95,20.01 17.11,30.5 16.69,33.89 29.53,72.79 30.7,110.85 1.08,35.54 -12.08,71.9 -48.01,84.84"
             style="fill:url(#linearGradient292);fill-opacity:1;fill-rule:nonzero;stroke:none"
             id="path294" />
        </g>
      </g>
      <g
         id="g296">
        <g
           id="g298"
           clip-path="url(#clipPath302)">
          <path
             d="m 2241.82,1113.98 c 11.48,-8.73 22.9,-19.29 30.57,-31.61 5.88,-9.41 12.55,-25.89 4.37,-35.93 -11.14,-13.7 -29.78,-1.09 -37.78,9.25 -10.6,13.66 -18.55,30.07 -25.57,45.81 -3.99,8.93 -10.07,22.03 -13.92,35.56 15.33,-5.49 29.82,-13.58 42.33,-23.08 z m 129.42,-130.5 c -15.32,63.78 -42.29,125.14 -80.16,178.58 -18.15,25.62 -48.21,51.74 -81.75,37.53 -21.02,-8.9 -25.48,-27.61 -23.36,-47.27 -27.72,6.51 -68.62,6.48 -81.6,-24.71 -14.05,-33.69 17.89,-68.65 39.97,-90.15 22.93,-22.31 49.73,-40.659 78.84,-53.98 4.21,-1.921 8.48,-3.742 12.8,-5.46 5.18,-2.051 10.41,-3.93 15.7,-5.641 h 17.05 c 1.45,2.68 0.99,6.191 -2.75,7.262 -4.12,1.179 -8.22,2.461 -12.27,3.839 -26.05,8.829 -50.65,21.49 -72.89,37.75 -13.18,9.63 -25.51,20.41 -36.68,32.3 -10.59,11.27 -20.89,23.36 -27.07,37.66 -6.03,13.94 -7.43,30.84 4.57,42.14 9.41,8.88 23.48,11.47 36,11.47 10.11,-0.02 20.29,-1.49 30.26,-4.12 2.46,-11.24 6.43,-22.22 10.02,-31.29 7.37,-18.53 16.4,-36.58 27.19,-53.36 8.99,-13.99 22,-26.9 39.81,-26.43 15.41,0.41 26.34,12.64 26.57,27.74 0.24,15.3 -7.54,29.66 -17.15,41.07 -20.32,24.09 -47.58,41.74 -77.61,50.98 -2.49,15.83 -0.11,30.71 14.17,38.56 28.69,15.76 56.16,-11.32 71.39,-32.83 36.4,-51.37 62.44,-110.38 77.45,-171.64 0.91,-3.691 1.78,-7.378 2.6,-11.101 h 11.45 c -0.81,3.723 -1.66,7.41 -2.55,11.101"
             style="fill:url(#linearGradient310);fill-opacity:1;fill-rule:nonzero;stroke:none"
             id="path312" />
        </g>
      </g>
      <path
         d="M 4788.75,972.379 H 317.758 c -7.192,0 -5.672,11.101 1.441,11.101 H 4790.2 c 7.19,0 5.67,-11.101 -1.45,-11.101"
         style="fill:#2d3766;fill-opacity:1;fill-rule:nonzero;stroke:none"
         id="path314" />
    </g>
  </g>
</svg>
